<svg width="94" height="62" viewBox="0 0 94 62" fill="none" xmlns="http://www.w3.org/2000/svg">
<path d="M8.36956 42.366C8.00941 41.2003 7.35354 40.7645 6.40197 41.0586C5.56458 41.3173 4.97268 41.9657 4.62628 43.0038C4.32545 44.0544 4.31009 45.0169 4.5802 45.8911C4.85782 46.7896 5.44772 47.5517 6.3499 48.1774C7.29014 48.7913 8.23605 48.9513 9.18763 48.6573C9.2257 48.6455 9.24473 48.6397 9.24473 48.6397C10.3486 48.2986 11.1158 47.5428 11.5463 46.3723C11.9769 45.2018 12.0689 44.0826 11.8224 43.0149C11.6215 41.9597 11.4047 41.0557 11.1721 40.3029C10.9395 39.5501 10.6386 38.7786 10.2693 37.9882C9.93805 37.1861 9.4929 36.3526 8.93384 35.4879C8.36727 34.5989 7.90254 33.9045 7.53965 33.4048C7.08618 32.7468 5.97848 31.2535 4.21656 28.9249C2.92187 29.4579 2.12145 29.9713 1.8153 30.4649C1.73863 30.6216 1.60138 30.7172 1.40356 30.7517C0.88623 30.8318 0.696736 30.6908 0.835077 30.3288C1.20289 29.6299 2.12207 28.8937 3.59263 28.1201C2.45839 26.6084 1.62117 24.9784 1.08094 23.2299C-0.0820511 19.466 0.557485 16.4751 2.99955 14.2575C3.79356 13.4535 4.81861 12.8575 6.07469 12.4694C10.5661 11.0816 13.2586 11.766 14.152 14.5226C14.4221 15.3968 14.354 16.2558 13.9475 17.0997C13.7786 17.4977 13.2747 18.0258 12.4356 18.6841C11.5891 19.3181 10.7662 19.7586 9.96685 20.0055C9.16752 20.2525 8.39958 20.2637 7.66301 20.039C6.92645 19.8144 6.46438 19.3985 6.2768 18.7914C5.89359 17.6861 6.48228 16.8924 8.04287 16.4102C8.38544 16.3043 8.61354 16.3004 8.72719 16.3983C8.83332 16.4719 8.84806 16.587 8.77138 16.7437C8.72527 16.8644 8.53093 16.9776 8.18836 17.0835C7.41209 17.2701 7.1215 17.6791 7.31658 18.3105C7.55723 18.9544 8.36269 19.0647 9.73296 18.6413C10.0375 18.5472 10.2857 18.271 10.4777 17.8127C10.7077 17.3425 10.8803 16.9567 10.9956 16.655C11.1415 16.3174 11.1206 15.845 10.933 15.2379C10.3853 13.4652 8.89339 12.9551 6.45735 13.7078C5.31546 14.0606 4.58796 14.4051 4.27486 14.7413C2.94687 15.9763 2.31417 17.3024 2.37677 18.7195C2.42546 19.8218 2.6749 21.1014 3.12509 22.5584C3.57528 24.0155 4.4471 25.555 5.74054 27.1771C6.22035 26.9757 6.93605 26.7279 7.88763 26.4339L9.93178 25.7624C10.5027 25.586 10.9064 25.4081 11.1428 25.2286C11.4098 25.0131 11.3688 24.813 11.0199 24.6282C10.6709 24.4434 10.5731 24.1943 10.7264 23.8809C10.8723 23.5432 11.1508 23.2975 11.562 23.1439C11.9732 22.9902 12.3913 22.994 12.8164 23.1553C13.4232 23.4998 13.7792 23.8421 13.8842 24.1821C13.9893 24.522 13.908 24.8664 13.6405 25.2151C13.1279 25.9853 12.0342 26.6291 10.3595 27.1466L8.24778 27.5995L6.53494 28.1288C6.86031 28.5071 7.43547 29.154 8.26043 30.0696C11.5603 33.732 13.6041 36.8381 14.3919 39.3879C14.7971 40.6992 15.0554 41.6702 15.1669 42.3008C15.4273 43.6834 15.0634 45.2723 14.0753 47.0673C13.0871 48.8623 11.6642 50.0601 9.80664 50.6607C8.74087 50.99 7.64216 51.0103 6.51051 50.7215C5.42442 50.4452 4.53697 49.9346 3.84816 49.1898C3.12879 48.481 2.64156 47.7138 2.38645 46.8881C1.89124 45.2854 2.32749 43.6609 3.69518 42.0146C4.48224 41.0532 5.31349 40.4372 6.18895 40.1667C7.29278 39.8256 8.22716 40.0158 8.9921 40.7371C9.28746 41.0183 9.47265 41.2803 9.54768 41.5231C9.62271 41.7659 9.67524 41.9359 9.70525 42.0331C9.89283 42.6402 9.84746 43.5054 9.56913 44.6289C9.29831 45.7767 8.78227 46.4682 8.021 46.7034C7.33587 46.9151 6.71295 46.7883 6.15224 46.3231C5.98553 46.1884 5.95579 46.0247 6.06302 45.8319C6.20832 45.6274 6.41419 45.484 6.68063 45.4017C7.0232 45.2958 7.30035 45.3831 7.51208 45.6635L7.72838 45.7563C8.25376 45.5674 8.5256 45.0977 8.54389 44.3471C8.60775 43.6092 8.54964 42.9488 8.36956 42.366Z" fill="white"/>
<path d="M28.6714 22.4064C29.623 22.1123 30.5496 22.3448 31.4512 23.1037C32.3909 23.8508 33.0108 24.7101 33.311 25.6814C33.6111 26.6528 33.4577 27.9106 32.8507 29.4548C32.2362 30.9748 31.2961 32.183 30.0303 33.0796C28.9098 33.7716 28.1402 34.1823 27.7215 34.3117C26.1459 34.7453 24.4388 34.8205 22.6 34.5374C21.4147 34.345 20.3332 33.8811 19.3555 33.1457C18.3702 32.386 17.7725 31.6662 17.5624 30.9863C17.3523 30.3064 17.2348 29.3185 17.2097 28.0228C17.2151 26.691 17.8524 25.1773 19.1215 23.4816C20.3519 21.931 21.8236 20.891 23.5364 20.3618C24.5641 20.0442 25.4768 19.9618 26.2745 20.1143C27.1027 20.2308 27.5994 20.5562 27.7645 21.0905C27.9295 21.6247 27.893 22.1813 27.655 22.7603C27.4549 23.3276 27.0695 23.6994 26.4985 23.8758C26.4605 23.8876 26.4224 23.8993 26.3843 23.9111C25.4328 24.2051 24.3995 24.0322 23.2845 23.3925C23.1403 23.3306 23.0912 23.2394 23.1373 23.1187C23.2215 22.9863 23.3397 22.8966 23.492 22.8495C23.6748 22.7664 23.8383 22.7558 23.9825 22.8177C24.1798 22.9163 24.5253 23.0224 25.019 23.1358C25.5508 23.2376 25.9499 23.2472 26.2163 23.1649C26.6731 23.0238 26.8463 22.5047 26.7359 21.6078C26.5709 21.0735 25.6319 21.071 23.9191 21.6003C23.5765 21.7061 23.2985 21.8186 23.0852 21.9377C22.9098 22.0451 22.7688 22.1286 22.6622 22.1881C22.5555 22.2477 22.4373 22.3374 22.3075 22.4573C22.2158 22.5655 22.1394 22.6556 22.0783 22.7277C22.0097 22.7755 21.9143 22.8714 21.792 23.0156C21.7003 23.1238 21.643 23.208 21.6199 23.2683C21.4746 23.4728 21.2376 23.7855 20.909 24.2062C20.6184 24.6152 20.4189 25.0493 20.3106 25.5084C20.2403 25.9558 20.2684 26.519 20.3949 27.1982C20.5519 27.8413 20.6334 28.3748 20.6392 28.7986C20.6831 29.2107 20.7276 29.4896 20.7726 29.6353L21.1328 30.8009C21.4104 31.6994 21.6591 32.2344 21.8789 32.4059C22.0987 32.5774 22.2844 32.7063 22.4361 32.7924C22.7545 33.0132 23.1113 33.1557 23.5064 33.2199C25.2845 33.4419 26.5923 33.4235 27.4297 33.1648C28.3052 32.8943 29.1627 32.3633 30.0023 31.5719C30.8724 30.7444 31.4648 29.9628 31.7796 29.2271C32.3099 27.8396 32.4137 26.6237 32.0911 25.5795C31.761 24.511 31.0301 23.8324 29.8984 23.5436C29.298 23.4897 29.016 23.6566 29.0524 24.0444C29.0749 24.1172 29.2226 24.2578 29.4955 24.4661C29.7608 24.6502 29.8018 24.8503 29.6184 25.0666C29.4731 25.2711 29.2292 25.4263 28.8866 25.5321C28.5746 25.6019 28.3428 25.5937 28.1911 25.5076C28.0699 25.3854 27.8804 25.2445 27.6226 25.0847C27.4028 24.9132 27.2592 24.7182 27.1916 24.4996C27.1241 24.2811 27.2587 23.9069 27.5954 23.3773C27.9702 22.8358 28.3288 22.5122 28.6714 22.4064Z" fill="white"/>
<path d="M45.414 17.2333C46.3656 16.9392 47.2922 17.1717 48.1938 17.9306C49.1335 18.6777 49.7534 19.537 50.0535 20.5083C50.3537 21.4797 50.2002 22.7375 49.5933 24.2817C48.9788 25.8017 48.0386 27.0099 46.7729 27.9065C45.6524 28.5985 44.8828 29.0092 44.4641 29.1386C42.8885 29.5722 41.1813 29.6474 39.3426 29.3643C38.1573 29.1719 37.0758 28.708 36.098 27.9726C35.1128 27.2129 34.5151 26.4931 34.305 25.8132C34.0949 25.1333 33.9773 24.1454 33.9522 22.8497C33.9577 21.5179 34.595 20.0042 35.864 18.3085C37.0945 16.7579 38.5661 15.7179 40.279 15.1887C41.3067 14.8711 42.2194 14.7887 43.0171 14.9412C43.8453 15.0577 44.342 15.3831 44.507 15.9174C44.6721 16.4516 44.6356 17.0082 44.3975 17.5872C44.1975 18.1545 43.812 18.5263 43.2411 18.7027C43.203 18.7145 43.165 18.7262 43.1269 18.738C42.1753 19.032 41.142 18.8591 40.027 18.2194C39.8828 18.1575 39.8338 18.0663 39.8799 17.9456C39.9641 17.8132 40.0823 17.7235 40.2345 17.6764C40.4174 17.5933 40.5809 17.5827 40.7251 17.6446C40.9223 17.7432 41.2678 17.8493 41.7616 17.9627C42.2934 18.0645 42.6925 18.0742 42.9589 17.9918C43.4157 17.8507 43.5889 17.3316 43.4785 16.4347C43.3134 15.9004 42.3745 15.8979 40.6616 16.4272C40.3191 16.533 40.0411 16.6455 39.8277 16.7646C39.6524 16.872 39.5114 16.9555 39.4047 17.015C39.2981 17.0746 39.1798 17.1643 39.0501 17.2842C38.9584 17.3924 38.882 17.4825 38.8209 17.5546C38.7523 17.6024 38.6568 17.6983 38.5346 17.8425C38.4429 17.9507 38.3856 18.0349 38.3625 18.0952C38.2172 18.2997 37.9802 18.6124 37.6516 19.0331C37.361 19.4421 37.1615 19.8762 37.0532 20.3353C36.9829 20.7827 37.011 21.3459 37.1375 22.0251C37.2945 22.6682 37.3759 23.2017 37.3818 23.6255C37.4257 24.0376 37.4702 24.3165 37.5152 24.4622L37.8754 25.6278C38.153 26.5263 38.4017 27.0613 38.6215 27.2328C38.8412 27.4043 39.027 27.5332 39.1787 27.6193C39.4971 27.8401 39.8539 27.9826 40.2489 28.0468C42.0271 28.2688 43.3349 28.2505 44.1723 27.9917C45.0478 27.7212 45.9053 27.1902 46.7448 26.3988C47.615 25.5713 48.2074 24.7897 48.5222 24.054C49.0525 22.6665 49.1563 21.4506 48.8337 20.4064C48.5035 19.3379 47.7726 18.6593 46.641 18.3705C46.0406 18.3166 45.7586 18.4835 45.795 18.8713C45.8175 18.9441 45.9652 19.0847 46.238 19.293C46.5034 19.4771 46.5444 19.6772 46.361 19.8935C46.2157 20.098 45.9718 20.2532 45.6292 20.359C45.3172 20.4288 45.0854 20.4206 44.9337 20.3345C44.8125 20.2123 44.623 20.0714 44.3652 19.9116C44.1454 19.7401 44.0017 19.5451 43.9342 19.3265C43.8667 19.108 44.0013 18.7338 44.338 18.2042C44.7127 17.6627 45.0714 17.3391 45.414 17.2333Z" fill="white"/>
<path d="M69.6542 21.9539L70.3844 21.8879C70.4605 21.8644 70.6243 21.7872 70.8757 21.6563C71.2188 21.4172 71.4129 21.3706 71.4579 21.5163C71.5555 21.832 71.4021 22.1454 70.9979 22.4565C70.6012 22.7919 70.3076 22.989 70.1173 23.0478C69.1657 23.3418 68.2118 23.2907 67.2554 22.8946C66.2991 22.4984 65.5674 22.0195 65.0603 21.458C64.5532 20.8964 63.9368 20.1159 63.211 19.1164C63.0168 20.1075 62.9082 20.6332 62.8852 20.6935C62.8621 20.7538 62.7359 20.9525 62.5064 21.2894C62.0855 21.9515 61.6542 22.3774 61.2124 22.5671C60.8087 22.745 60.4166 22.8928 60.0359 23.0104C58.3612 23.5279 56.5554 23.5538 54.6185 23.0881C52.226 22.4973 50.7784 21.3883 50.2757 19.7613C50.0956 19.1785 49.9619 18.4084 49.8746 17.4511C49.7873 16.4938 50.1908 15.4381 51.0851 14.2839C52.1017 12.9855 53.295 12.1247 54.6653 11.7013C55.3505 11.4896 56.1868 11.4972 57.1742 11.7242C58.3364 11.9769 59.0338 12.4797 59.2664 13.2325C59.499 13.9853 59.3322 14.795 58.7661 15.6616C58.5516 16.047 58.1892 16.3585 57.6788 16.596C57.199 16.7975 56.6436 16.8893 56.0126 16.8714C55.3741 16.8293 54.9831 16.7107 54.8394 16.5157C54.6883 16.2964 54.6092 16.108 54.6022 15.9505C54.6333 15.7813 54.6988 15.5882 54.7985 15.3711C54.8907 15.1298 54.9371 14.9426 54.9377 14.8094C54.9838 14.6887 55.083 14.6049 55.2352 14.5578C55.418 14.4748 55.5625 14.47 55.6686 14.5436C55.8053 14.5812 55.8734 14.6666 55.8729 14.7998C55.757 15.2346 55.7822 15.5859 55.9484 15.8538C56.0089 15.9149 56.1874 15.9529 56.4839 15.9677C57.191 15.962 57.6371 15.6513 57.8221 15.0355C58.0376 14.3836 58.1116 13.9484 58.0441 13.7299C57.9766 13.5113 57.8938 13.3108 57.7957 13.1283C57.6976 12.9457 57.3218 12.8091 56.6683 12.7184C56.0148 12.6277 55.5739 12.6176 55.3455 12.6882C53.7088 13.1939 52.7427 14.2506 52.4472 15.8582C52.245 16.9582 52.2264 17.7753 52.3915 18.3095C52.5566 18.8438 52.7184 19.2327 52.8771 19.4763C53.4056 20.3771 54.3533 21.0153 55.7203 21.391C57.0798 21.7424 58.3495 21.7358 59.5295 21.3712C59.7579 21.3007 59.9635 21.2238 60.1463 21.1408C60.3291 21.0577 60.5352 20.8477 60.7647 20.5107C61.0322 20.1621 61.296 19.8012 61.5561 19.4283C61.8086 19.031 61.9807 18.7783 62.0724 18.6702C62.1565 18.5378 62.2338 18.2479 62.304 17.8005C61.3526 16.2058 60.7006 14.8377 60.3479 13.6964C59.9878 12.5308 59.7592 11.7235 59.6622 11.2746C59.5652 10.8258 59.48 10.2801 59.4066 9.63777C59.3713 8.98364 59.3352 8.52927 59.2982 8.27467C59.0416 5.95977 59.4538 3.71755 60.5347 1.54803C60.8414 0.921222 61.2612 0.525495 61.7941 0.360846C61.8322 0.349085 61.8702 0.337325 61.9083 0.325564C63.1638 0.0706413 64.073 0.853817 64.6357 2.6751C65.356 5.00634 65.1954 7.99547 64.1541 11.6425C63.9766 12.2826 63.7036 13.0187 63.3353 13.8507C63.711 14.9317 64.114 15.8314 64.5445 16.5497C64.9749 17.2679 65.3297 17.8766 65.609 18.3755C65.8807 18.8502 66.1375 19.2763 66.3792 19.6538C66.6135 20.0071 66.9235 20.4034 67.3095 20.8428C68.0583 21.7819 68.8399 22.1523 69.6542 21.9539ZM62.82 11.5758C63.7472 7.96411 63.8244 4.90762 63.0516 2.4064C62.8265 1.67789 62.4821 1.30546 62.0184 1.28913C61.9803 1.30089 61.965 1.31891 61.9725 1.34319C62.01 1.46461 62.0057 1.58565 61.9596 1.7063C61.9135 1.82696 61.8596 1.98992 61.798 2.19519C61.7363 2.40046 61.6631 2.63589 61.5784 2.90149C61.5242 3.13104 61.4885 3.48789 61.4713 3.97204C61.4541 4.45619 61.4487 4.84359 61.4551 5.13423C61.4996 5.41312 61.5738 5.85572 61.6778 6.46205C61.7742 7.0441 61.8514 7.69862 61.9092 8.42561C62.0051 9.14083 62.2626 10.3116 62.6817 11.9378L62.82 11.5758Z" fill="white"/>
<path d="M26.4907 56.7584L26.3452 56.0851C26.3077 55.9637 26.3575 55.8551 26.4948 55.7595C26.632 55.6639 26.7652 55.6228 26.8944 55.636C27.0617 55.6376 27.1641 55.699 27.2016 55.8205C27.3667 56.3547 27.6358 56.5509 28.0089 56.409C28.4507 56.2193 28.7297 55.8404 28.8461 55.2724C28.8772 55.1032 28.874 54.9579 28.8365 54.8365L28.5076 54.3794C28.4176 54.088 28.2134 53.8319 27.8949 53.6111C27.5765 53.3902 27.227 53.3386 26.8464 53.4562C26.6561 53.515 26.4687 53.7857 26.2842 54.2684C25.6414 55.2917 25.4888 56.3497 25.8264 57.4425C26.164 58.5352 26.9287 59.3231 28.1204 59.8062C28.166 59.8187 28.2228 59.8677 28.2909 59.953C28.4345 60.1481 28.6015 60.2162 28.7918 60.1574C29.4008 59.9692 30.0573 59.3274 30.7613 58.2321C31.8567 56.2443 32.1343 54.3762 31.594 52.6277C31.3614 51.8749 31.0404 51.3756 30.6308 51.1297C30.2593 50.8721 29.5297 50.8049 28.442 50.9282C28.1605 50.9619 27.548 51.0713 26.6045 51.2565C25.6535 51.4173 24.9726 51.508 24.562 51.5284C24.1894 51.5371 23.7603 51.4303 23.2746 51.208C22.7889 50.9856 22.4298 50.498 22.1972 49.7452C21.9646 48.9924 22.2427 47.9355 23.0314 46.5746C24.0651 44.792 25.3813 43.6538 26.9799 43.1599C27.7412 42.9246 28.5775 42.9323 29.4888 43.1827C30.4382 43.4214 31.0254 43.905 31.2505 44.6335C31.4681 45.3378 31.3852 46.0816 31.0019 46.8652C30.6491 47.6126 30.054 48.1157 29.2166 48.3744C28.8359 48.4921 28.4103 48.464 27.9396 48.2902C27.4995 48.0803 27.2342 47.8963 27.1436 47.7381C27.0836 47.5438 27.0613 47.4043 27.0769 47.3197C27.123 47.1991 27.2072 47.0667 27.3294 46.9225C27.4897 46.7665 27.5967 46.6404 27.6503 46.544C27.742 46.4359 27.8677 46.3704 28.0274 46.3477C28.2253 46.3132 28.3582 46.3386 28.4263 46.424C28.5249 46.4733 28.5321 46.5642 28.448 46.6966L28.5509 46.6249C28.3064 46.9132 28.2067 47.1303 28.2517 47.276C28.2892 47.3974 28.3876 47.5133 28.5468 47.6237C28.706 47.7341 28.8617 47.7658 29.014 47.7188C29.623 47.5306 30.0503 47.1592 30.2959 46.6045C30.572 46.0137 30.635 45.4755 30.485 44.9898C30.3349 44.5041 29.9256 44.1917 29.2572 44.0524C28.5887 43.9131 28.0831 43.8964 27.7406 44.0022C26.3703 44.4256 25.3366 45.2637 24.6396 46.5166C23.9426 47.7694 23.7104 48.7722 23.943 49.525C24.1231 50.1078 24.5857 50.3905 25.3309 50.3731C25.9088 50.3542 26.5515 50.2753 27.2592 50.1364C27.9668 49.9976 28.4386 49.905 28.6745 49.8587C30.0892 49.7142 31.1456 49.8268 31.8435 50.1964C32.5415 50.566 33.0293 51.2 33.3069 52.0985C33.9596 54.2112 33.7343 56.3159 32.6309 58.4126C32.1328 59.3645 31.8226 59.9126 31.7003 60.0568C30.9363 60.9579 30.2308 61.5084 29.5837 61.7083C28.9747 61.8965 28.3435 61.9452 27.69 61.8545C27.0821 61.7763 26.6074 61.657 26.2659 61.4965C24.6191 60.755 23.5706 59.6558 23.1204 58.1987C22.6702 56.7417 22.9004 55.3272 23.8107 53.9552C24.2166 53.2446 25.1047 52.6776 26.475 52.2542C26.513 52.2424 26.5511 52.2307 26.5892 52.2189C27.3124 51.9954 27.9886 52.0924 28.618 52.5098C29.2473 52.9272 29.6482 53.4152 29.8208 53.9737L29.75 54.5542C29.9001 55.0399 29.681 55.613 29.0929 56.2736C28.5047 56.9341 28.0394 57.3173 27.6968 57.4232C27.202 57.5761 26.7999 57.3545 26.4907 56.7584Z" fill="white"/>
<path d="M41.103 44.0234C41.9785 43.7529 42.8981 43.8279 43.862 44.2484C44.8564 44.6328 45.4549 45.1528 45.6575 45.8085C45.8525 46.4398 45.6707 47.201 45.1121 48.0918C44.5914 48.971 43.7639 49.5991 42.6296 49.9762C42.0967 50.1408 41.0888 50.2527 39.606 50.3118C38.1537 50.3349 37.1161 50.2831 36.4932 50.1563C35.8985 52.415 36.7623 54.0635 39.0845 55.1017C40.0028 55.5096 40.8997 55.5784 41.7751 55.3079C42.6506 55.0374 43.5499 54.5068 44.4731 53.7161C45.3888 52.9011 45.9086 52.2218 46.0325 51.678C46.1944 51.1226 46.4695 50.7982 46.8576 50.7048C47.0935 50.6586 47.2339 50.7083 47.279 50.854C47.324 50.9997 47.3079 51.2175 47.2307 51.5073C46.9984 52.5102 46.4623 53.4739 45.6221 54.3985C44.8201 55.3114 43.81 55.956 42.592 56.3323C40.7194 56.8843 39.0503 56.9478 37.5847 56.5228C36.1646 56.1103 35.0084 55.337 34.1159 54.2028C33.6207 52.6001 33.7682 50.9185 34.5586 49.158C35.387 47.3857 36.8755 45.9282 39.0243 44.7854C39.5346 44.5479 40.2276 44.2939 41.103 44.0234ZM42.5428 48.8857C43.1137 48.7093 43.522 48.3437 43.7676 47.789C44.0512 47.2225 44.1293 46.7329 44.0017 46.32C43.8742 45.9072 43.4802 45.5767 42.8197 45.3286C42.1973 45.0686 41.6768 45.0033 41.2581 45.1327C40.8394 45.2621 40.3899 45.4941 39.9095 45.8287C38.2942 46.6736 37.2364 47.8384 36.7361 49.3231C36.7742 49.3114 36.8881 49.3427 37.0779 49.417C37.2982 49.4554 38.1233 49.4266 39.553 49.3306C40.9753 49.2104 41.9719 49.0621 42.5428 48.8857Z" fill="white"/>
<path d="M51.9775 44.0153L51.5394 42.3949C51.1493 41.1322 50.6124 40.4069 49.9289 40.219C49.5644 40.1188 49.1157 40.1511 48.5828 40.3157C47.5551 40.6333 46.6627 41.3213 45.9057 42.3799C45.1411 43.4142 44.8639 44.2713 45.074 44.9513C45.164 45.2427 45.4173 45.59 45.8338 45.9934C46.2428 46.3725 46.6757 46.4914 47.1325 46.3503C47.6198 46.1731 48.0353 45.8984 48.3789 45.5262C48.7151 45.1297 48.8344 44.7737 48.7369 44.458C48.6318 44.118 48.4882 43.923 48.3059 43.8729C48.1617 43.811 47.903 43.851 47.5299 43.9929C47.1873 44.0988 46.9439 44.1208 46.7997 44.0589C46.6861 43.961 46.6486 43.8396 46.6872 43.6947C46.7258 43.5497 46.8593 43.442 47.0877 43.3714L47.0764 43.335C47.1906 43.2997 47.4761 43.2115 47.9328 43.0704C48.4277 42.9175 48.8573 42.8911 49.2219 42.9913C49.5789 43.0672 49.8475 43.3965 50.0275 43.9794C50.2001 44.5379 50.0076 45.1294 49.45 45.7539C48.8849 46.3542 48.1341 46.8256 47.1975 47.1682C46.6266 47.3446 45.9125 47.1928 45.0554 46.7127C44.2288 46.1967 43.7554 45.7444 43.6354 45.3559C43.3883 44.4213 43.7428 43.2743 44.6987 41.9149C45.6853 40.5194 46.8065 39.6276 48.0626 39.2395C49.3568 38.8396 50.5276 38.8503 51.5751 39.2715C53.283 39.9409 54.4792 41.1807 55.1636 42.991L55.6138 44.448C56.6316 40.9945 57.263 39.057 57.508 38.6354C58.5803 36.708 59.9349 35.4914 61.5716 34.9857C62.3709 34.7387 63.1764 34.849 63.988 35.3164C64.8301 35.7479 65.33 36.2186 65.4875 36.7286C65.8327 37.8456 65.9203 38.7363 65.7503 39.4007C65.1717 41.4416 65.16 43.3606 65.7152 45.1576C66.3755 47.2945 67.5017 48.9151 69.0937 50.0193C69.5505 49.8782 69.9963 49.6341 70.4311 49.2869C70.9114 48.9523 71.239 48.7979 71.4138 48.8237C71.6266 48.8377 71.7518 48.9054 71.7893 49.0269C71.8268 49.1483 71.7616 49.2748 71.5938 49.4065C70.6556 50.1486 69.8439 50.6255 69.1588 50.8372C68.4812 51.0732 67.7331 50.8787 66.9145 50.2537C66.8009 50.1558 66.5546 49.9659 66.1756 49.684C65.8041 49.4263 65.5085 49.2118 65.2887 49.0402C65.0995 48.8327 64.8609 48.6005 64.5731 48.3436C63.9823 47.7812 63.6195 47.2815 63.4844 46.8444C63.3493 46.4073 63.248 46.0795 63.1805 45.8609C62.3852 43.2869 62.2342 41.1787 62.7275 39.5366C63.0359 38.5103 63.1185 37.833 62.9754 37.5048C62.6903 36.582 62.3574 36.1794 61.9767 36.297C60.6826 36.6969 59.6827 37.6443 58.9771 39.1392C58.4404 40.2361 57.972 41.3518 57.572 42.4862C56.8636 44.6471 56.4817 47.8642 56.4261 52.1377C56.4331 52.2952 56.25 52.4449 55.8768 52.5867C55.5418 52.7169 55.188 52.7863 54.8154 52.795C54.4809 52.792 54.2911 52.7176 54.2461 52.5719C53.9867 50.9229 53.602 49.2727 53.0918 47.6214C52.574 45.9458 52.2026 44.7438 51.9775 44.0153Z" fill="white"/>
<path d="M72.4252 42.5656L72.2797 41.8923C72.2421 41.7709 72.292 41.6624 72.4293 41.5668C72.5665 41.4711 72.6997 41.43 72.8289 41.4433C72.9962 41.4448 73.0986 41.5063 73.1361 41.6277C73.3012 42.1619 73.5703 42.3581 73.9434 42.2162C74.3851 42.0265 74.6642 41.6477 74.7806 41.0797C74.8117 40.9104 74.8085 40.7651 74.771 40.6437L74.4421 40.1867C74.3521 39.8953 74.1479 39.6391 73.8294 39.4183C73.511 39.1975 73.1615 39.1458 72.7809 39.2634C72.5906 39.3222 72.4032 39.593 72.2187 40.0756C71.5759 41.0989 71.4232 42.1569 71.7609 43.2497C72.0985 44.3424 72.8632 45.1304 74.0549 45.6134C74.1004 45.6259 74.1573 45.6749 74.2253 45.7603C74.369 45.9553 74.536 46.0234 74.7263 45.9646C75.3353 45.7764 75.9918 45.1347 76.6958 44.0393C77.7912 42.0515 78.0687 40.1834 77.5285 38.435C77.2959 37.6822 76.9748 37.1828 76.5653 36.9369C76.1938 36.6793 75.4642 36.6121 74.3765 36.7354C74.095 36.7691 73.4825 36.8786 72.539 37.0637C71.588 37.2245 70.9071 37.3152 70.4965 37.3357C70.1239 37.3444 69.6948 37.2376 69.2091 37.0152C68.7234 36.7928 68.3643 36.3052 68.1317 35.5524C67.8991 34.7996 68.1772 33.7428 68.9659 32.3818C69.9996 30.5993 71.3158 29.461 72.9144 28.9671C73.6757 28.7319 74.512 28.7395 75.4233 28.99C76.3727 29.2287 76.9599 29.7123 77.185 30.4408C77.4026 31.145 77.3197 31.8889 76.9364 32.6724C76.5836 33.4198 75.9885 33.9229 75.1511 34.1817C74.7704 34.2993 74.3448 34.2712 73.8741 34.0974C73.434 33.8875 73.1687 33.7035 73.0781 33.5453C73.018 33.351 72.9958 33.2116 73.0114 33.127C73.0575 33.0063 73.1417 32.8739 73.2639 32.7297C73.4242 32.5738 73.5312 32.4476 73.5848 32.3512C73.6765 32.2431 73.8022 32.1777 73.9619 32.1549C74.1598 32.1204 74.2927 32.1458 74.3608 32.2312C74.4594 32.2805 74.4666 32.3714 74.3825 32.5038L74.4854 32.4321C74.2409 32.7204 74.1412 32.9375 74.1862 33.0832C74.2237 33.2046 74.3221 33.3205 74.4813 33.4309C74.6405 33.5414 74.7962 33.573 74.9485 33.526C75.5575 33.3378 75.9848 32.9664 76.2304 32.4117C76.5065 31.8209 76.5695 31.2827 76.4195 30.797C76.2694 30.3114 75.8601 29.9989 75.1916 29.8596C74.5231 29.7203 74.0176 29.7036 73.6751 29.8094C72.3048 30.2328 71.2711 31.0709 70.5741 32.3238C69.8771 33.5766 69.6449 34.5795 69.8775 35.3323C70.0576 35.9151 70.5202 36.1978 71.2653 36.1803C71.8432 36.1614 72.486 36.0825 73.1937 35.9437C73.9013 35.8048 74.3731 35.7122 74.609 35.666C76.0237 35.5215 77.0801 35.634 77.778 36.0036C78.476 36.3732 78.9637 37.0072 79.2414 37.9057C79.8941 40.0184 79.6688 42.1231 78.5654 44.2198C78.0673 45.1717 77.7571 45.7198 77.6348 45.864C76.8708 46.7651 76.1653 47.3156 75.5182 47.5156C74.9092 47.7037 74.278 47.7525 73.6245 47.6618C73.0166 47.5836 72.5419 47.4642 72.2004 47.3037C70.5536 46.5622 69.5051 45.463 69.0549 44.006C68.6047 42.5489 68.8348 41.1344 69.7452 39.7625C70.1511 39.0518 71.0392 38.4848 72.4095 38.0614C72.4475 38.0496 72.4856 38.0379 72.5237 38.0261C73.2469 37.8027 73.9231 37.8996 74.5524 38.317C75.1818 38.7344 75.5827 39.2224 75.7553 39.7809L75.6845 40.3614C75.8345 40.8471 75.6155 41.4202 75.0274 42.0808C74.4392 42.7414 73.9739 43.1246 73.6313 43.2304C73.1365 43.3833 72.7344 43.1617 72.4252 42.5656Z" fill="white"/>
<path d="M87.0375 29.8307C87.9129 29.5602 88.8326 29.6351 89.7964 30.0556C90.7909 30.44 91.3894 30.96 91.5919 31.6157C91.787 32.2471 91.6052 33.0082 91.0465 33.8991C90.5259 34.7782 89.6984 35.4063 88.564 35.7834C88.0312 35.948 87.0233 36.0599 85.5405 36.1191C84.0882 36.1421 83.0506 36.0903 82.4277 35.9635C81.833 38.2223 82.6968 39.8707 85.019 40.9089C85.9373 41.3169 86.8341 41.3856 87.7096 41.1151C88.585 40.8446 89.4844 40.314 90.4076 39.5233C91.3233 38.7083 91.8431 38.029 91.967 37.4853C92.1289 36.9298 92.404 36.6054 92.7921 36.5121C93.028 36.4658 93.1684 36.5155 93.2134 36.6612C93.2585 36.8069 93.2424 37.0247 93.1651 37.3146C92.9329 38.3174 92.3968 39.2811 91.5566 40.2058C90.7546 41.1186 89.7445 41.7632 88.5265 42.1396C86.6539 42.6916 84.9848 42.755 83.5192 42.33C82.0991 41.9175 80.9428 41.1442 80.0504 40.0101C79.5551 38.4073 79.7027 36.7257 80.4931 34.9652C81.3215 33.1929 82.81 31.7354 84.9588 30.5927C85.4691 30.3552 86.162 30.1012 87.0375 29.8307ZM88.4773 34.6929C89.0482 34.5165 89.4565 34.1509 89.7021 33.5962C89.9857 33.0297 90.0637 32.5401 89.9362 32.1273C89.8086 31.7144 89.4146 31.384 88.7542 31.1358C88.1318 30.8758 87.6113 30.8106 87.1926 30.9399C86.7739 31.0693 86.3244 31.3013 85.844 31.6359C84.2287 32.4809 83.1709 33.6457 82.6706 35.1303C82.7087 35.1186 82.8226 35.1499 83.0124 35.2243C83.2327 35.2626 84.0577 35.2338 85.4875 35.1378C86.9097 35.0176 87.9063 34.8693 88.4773 34.6929Z" fill="white"/>
</svg>
