<svg width="140" height="30" viewBox="0 0 140 30" fill="none" xmlns="http://www.w3.org/2000/svg">
<path d="M0 5C0 2.23858 2.23858 0 5 0H135C137.761 0 140 2.23858 140 5V25C140 27.7614 137.761 30 135 30H5C2.23857 30 0 27.7614 0 25V5Z" fill="white"/>
<path d="M29.4053 15.915L30.2939 15.8516C30.2419 16.1283 30.2158 16.3317 30.2158 16.4619C30.2158 16.7256 30.2972 16.9372 30.46 17.0967C30.626 17.2529 30.8555 17.3311 31.1484 17.3311C31.36 17.3311 31.5456 17.2839 31.7051 17.1895C31.8678 17.0918 31.9997 16.9421 32.1006 16.7402C32.1787 16.5872 32.2585 16.3122 32.3398 15.915L33.4043 10.8418H34.3564L33.2676 16.0713C33.1146 16.807 32.859 17.3327 32.501 17.6484C32.1429 17.9642 31.6855 18.1221 31.1289 18.1221C30.5365 18.1221 30.0889 17.9854 29.7861 17.7119C29.4834 17.4385 29.332 17.0544 29.332 16.5596C29.332 16.3415 29.3564 16.1266 29.4053 15.915ZM34.4883 16.0322C34.4883 15.0199 34.7861 14.1816 35.3818 13.5176C35.8734 12.9707 36.5179 12.6973 37.3154 12.6973C37.9404 12.6973 38.4434 12.8926 38.8242 13.2832C39.2083 13.6738 39.4004 14.2012 39.4004 14.8652C39.4004 15.4609 39.2799 16.016 39.0391 16.5303C38.7982 17.0413 38.4548 17.4336 38.0088 17.707C37.5661 17.9805 37.099 18.1172 36.6074 18.1172C36.2038 18.1172 35.8359 18.0309 35.5039 17.8584C35.1751 17.6859 34.9229 17.4417 34.7471 17.126C34.5745 16.8102 34.4883 16.4456 34.4883 16.0322ZM35.3721 15.9443C35.3721 16.4326 35.4893 16.8037 35.7236 17.0576C35.958 17.3083 36.2559 17.4336 36.6172 17.4336C36.806 17.4336 36.9932 17.3962 37.1787 17.3213C37.3643 17.2432 37.5368 17.126 37.6963 16.9697C37.8558 16.8135 37.9909 16.6361 38.1016 16.4375C38.2155 16.2357 38.3066 16.0192 38.375 15.7881C38.4759 15.4658 38.5264 15.1566 38.5264 14.8604C38.5264 14.3916 38.4076 14.0286 38.1699 13.7715C37.9355 13.5111 37.6393 13.3809 37.2812 13.3809C37.0046 13.3809 36.7523 13.4476 36.5244 13.5811C36.2965 13.7113 36.0898 13.9033 35.9043 14.1572C35.722 14.4111 35.5869 14.7074 35.499 15.0459C35.4144 15.3812 35.3721 15.6807 35.3721 15.9443ZM41.1533 11.8428L41.3633 10.8418H42.2422L42.0322 11.8428H41.1533ZM39.8643 18L40.9482 12.8145H41.832L40.748 18H39.8643ZM42.125 18L43.209 12.8145H44.0098L43.8193 13.7178C44.1676 13.363 44.4932 13.1042 44.7959 12.9414C45.0986 12.7786 45.4079 12.6973 45.7236 12.6973C46.1436 12.6973 46.4723 12.8112 46.71 13.0391C46.9508 13.2669 47.0713 13.5713 47.0713 13.9521C47.0713 14.1442 47.029 14.4469 46.9443 14.8604L46.2852 18H45.4014L46.0898 14.7139C46.1582 14.3949 46.1924 14.1589 46.1924 14.0059C46.1924 13.8333 46.1322 13.6934 46.0117 13.5859C45.8945 13.4785 45.7236 13.4248 45.499 13.4248C45.0465 13.4248 44.6429 13.5876 44.2881 13.9131C43.9365 14.2386 43.6777 14.7969 43.5117 15.5879L43.0088 18H42.125ZM52.54 17.2822L52.3936 18.0049C52.182 18.0602 51.9769 18.0879 51.7783 18.0879C51.4268 18.0879 51.1468 18.0016 50.9385 17.8291C50.7822 17.6989 50.7041 17.5215 50.7041 17.2969C50.7041 17.1829 50.7464 16.9209 50.8311 16.5107L51.4609 13.498H50.7627L50.9043 12.8145H51.6025L51.8711 11.54L52.8818 10.9297L52.4863 12.8145H53.3555L53.209 13.498H52.3447L51.7441 16.3643C51.6693 16.7288 51.6318 16.9469 51.6318 17.0186C51.6318 17.1227 51.6611 17.2025 51.7197 17.2578C51.7816 17.3132 51.8809 17.3408 52.0176 17.3408C52.2129 17.3408 52.387 17.3213 52.54 17.2822ZM53.2578 18L54.752 10.8418H55.6357L55.0645 13.5908C55.3932 13.2718 55.6992 13.0439 55.9824 12.9072C56.2656 12.7673 56.557 12.6973 56.8564 12.6973C57.2861 12.6973 57.6198 12.8112 57.8574 13.0391C58.0951 13.2637 58.2139 13.5615 58.2139 13.9326C58.2139 14.1149 58.1618 14.4502 58.0576 14.9385L57.418 18H56.5342L57.1934 14.8604C57.2878 14.4046 57.335 14.1182 57.335 14.001C57.335 13.8317 57.2764 13.6934 57.1592 13.5859C57.042 13.4785 56.8727 13.4248 56.6514 13.4248C56.3324 13.4248 56.028 13.5094 55.7383 13.6787C55.4486 13.8447 55.2207 14.0742 55.0547 14.3672C54.8919 14.6569 54.7422 15.1257 54.6055 15.7734L54.1416 18H53.2578ZM62.6328 16.2373L63.4922 16.3252C63.3685 16.7516 63.0837 17.1569 62.6377 17.541C62.195 17.9251 61.666 18.1172 61.0508 18.1172C60.6667 18.1172 60.3135 18.0293 59.9912 17.8535C59.6722 17.6745 59.4281 17.4157 59.2588 17.0771C59.0928 16.7386 59.0098 16.3529 59.0098 15.9199C59.0098 15.3535 59.14 14.805 59.4004 14.2744C59.6641 13.7406 60.0042 13.3451 60.4209 13.0879C60.8376 12.8275 61.2884 12.6973 61.7734 12.6973C62.3919 12.6973 62.8851 12.8893 63.2529 13.2734C63.624 13.6576 63.8096 14.1816 63.8096 14.8457C63.8096 15.0996 63.7868 15.36 63.7412 15.627H59.9229C59.9098 15.7279 59.9033 15.819 59.9033 15.9004C59.9033 16.3854 60.014 16.7565 60.2354 17.0137C60.46 17.2676 60.7334 17.3945 61.0557 17.3945C61.3584 17.3945 61.6562 17.2952 61.9492 17.0967C62.2422 16.8981 62.4701 16.6117 62.6328 16.2373ZM60.0645 14.9531H62.9746C62.9779 14.862 62.9795 14.7969 62.9795 14.7578C62.9795 14.3151 62.8688 13.9766 62.6475 13.7422C62.4261 13.5046 62.1413 13.3857 61.793 13.3857C61.4154 13.3857 61.0703 13.516 60.7578 13.7764C60.4486 14.0368 60.2174 14.429 60.0645 14.9531ZM72.8721 15.4805L73.8193 15.6123C73.5199 16.4391 73.0837 17.0641 72.5107 17.4873C71.9378 17.9105 71.2949 18.1221 70.582 18.1221C69.7129 18.1221 69.0228 17.8568 68.5117 17.3262C68.0039 16.7956 67.75 16.0355 67.75 15.0459C67.75 13.7568 68.1374 12.6908 68.9121 11.8477C69.6022 11.0957 70.46 10.7197 71.4854 10.7197C72.2438 10.7197 72.8574 10.9232 73.3262 11.3301C73.7982 11.737 74.0716 12.2839 74.1465 12.9707L73.2529 13.0537C73.1585 12.5361 72.9632 12.1504 72.667 11.8965C72.374 11.6393 71.9948 11.5107 71.5293 11.5107C70.6536 11.5107 69.9456 11.8997 69.4053 12.6777C68.9365 13.3483 68.7021 14.1442 68.7021 15.0654C68.7021 15.8011 68.8828 16.3626 69.2441 16.75C69.6055 17.1374 70.0758 17.3311 70.6553 17.3311C71.1501 17.3311 71.5977 17.1699 71.998 16.8477C72.3984 16.5254 72.6898 16.0697 72.8721 15.4805ZM74.5566 16.0322C74.5566 15.0199 74.8545 14.1816 75.4502 13.5176C75.9417 12.9707 76.5863 12.6973 77.3838 12.6973C78.0088 12.6973 78.5117 12.8926 78.8926 13.2832C79.2767 13.6738 79.4688 14.2012 79.4688 14.8652C79.4688 15.4609 79.3483 16.016 79.1074 16.5303C78.8665 17.0413 78.5231 17.4336 78.0771 17.707C77.6344 17.9805 77.1673 18.1172 76.6758 18.1172C76.2721 18.1172 75.9043 18.0309 75.5723 17.8584C75.2435 17.6859 74.9912 17.4417 74.8154 17.126C74.6429 16.8102 74.5566 16.4456 74.5566 16.0322ZM75.4404 15.9443C75.4404 16.4326 75.5576 16.8037 75.792 17.0576C76.0264 17.3083 76.3242 17.4336 76.6855 17.4336C76.8743 17.4336 77.0615 17.3962 77.2471 17.3213C77.4326 17.2432 77.6051 17.126 77.7646 16.9697C77.9242 16.8135 78.0592 16.6361 78.1699 16.4375C78.2839 16.2357 78.375 16.0192 78.4434 15.7881C78.5443 15.4658 78.5947 15.1566 78.5947 14.8604C78.5947 14.3916 78.4759 14.0286 78.2383 13.7715C78.0039 13.5111 77.7077 13.3809 77.3496 13.3809C77.0729 13.3809 76.8206 13.4476 76.5928 13.5811C76.3649 13.7113 76.1582 13.9033 75.9727 14.1572C75.7904 14.4111 75.6553 14.7074 75.5674 15.0459C75.4827 15.3812 75.4404 15.6807 75.4404 15.9443ZM79.9668 18L81.0508 12.8145H81.8516L81.6611 13.7178C82.0094 13.363 82.335 13.1042 82.6377 12.9414C82.9404 12.7786 83.2497 12.6973 83.5654 12.6973C83.9854 12.6973 84.3141 12.8112 84.5518 13.0391C84.7926 13.2669 84.9131 13.5713 84.9131 13.9521C84.9131 14.1442 84.8708 14.4469 84.7861 14.8604L84.127 18H83.2432L83.9316 14.7139C84 14.3949 84.0342 14.1589 84.0342 14.0059C84.0342 13.8333 83.974 13.6934 83.8535 13.5859C83.7363 13.4785 83.5654 13.4248 83.3408 13.4248C82.8883 13.4248 82.4847 13.5876 82.1299 13.9131C81.7783 14.2386 81.5195 14.7969 81.3535 15.5879L80.8506 18H79.9668ZM86.8418 18L85.9922 12.8145H86.8516L87.2959 15.6709C87.3447 15.9834 87.4049 16.4928 87.4766 17.1992C87.6458 16.8314 87.8623 16.4098 88.126 15.9346L89.8594 12.8145H90.792L87.8232 18H86.8418ZM94.3418 16.2373L95.2012 16.3252C95.0775 16.7516 94.7926 17.1569 94.3467 17.541C93.904 17.9251 93.375 18.1172 92.7598 18.1172C92.3757 18.1172 92.0225 18.0293 91.7002 17.8535C91.3812 17.6745 91.137 17.4157 90.9678 17.0771C90.8018 16.7386 90.7188 16.3529 90.7188 15.9199C90.7188 15.3535 90.849 14.805 91.1094 14.2744C91.373 13.7406 91.7132 13.3451 92.1299 13.0879C92.5465 12.8275 92.9974 12.6973 93.4824 12.6973C94.1009 12.6973 94.5941 12.8893 94.9619 13.2734C95.333 13.6576 95.5186 14.1816 95.5186 14.8457C95.5186 15.0996 95.4958 15.36 95.4502 15.627H91.6318C91.6188 15.7279 91.6123 15.819 91.6123 15.9004C91.6123 16.3854 91.723 16.7565 91.9443 17.0137C92.1689 17.2676 92.4424 17.3945 92.7646 17.3945C93.0674 17.3945 93.3652 17.2952 93.6582 17.0967C93.9512 16.8981 94.179 16.6117 94.3418 16.2373ZM91.7734 14.9531H94.6836C94.6868 14.862 94.6885 14.7969 94.6885 14.7578C94.6885 14.3151 94.5778 13.9766 94.3564 13.7422C94.1351 13.5046 93.8503 13.3857 93.502 13.3857C93.1243 13.3857 92.7793 13.516 92.4668 13.7764C92.1576 14.0368 91.9264 14.429 91.7734 14.9531ZM96.0996 18L97.1836 12.8145H97.9648L97.7451 13.874C98.012 13.4736 98.2725 13.1774 98.5264 12.9854C98.7835 12.7933 99.0456 12.6973 99.3125 12.6973C99.4883 12.6973 99.7048 12.7607 99.9619 12.8877L99.6006 13.708C99.4476 13.5973 99.2799 13.542 99.0977 13.542C98.7884 13.542 98.471 13.7145 98.1455 14.0596C97.82 14.4046 97.5645 15.0247 97.3789 15.9199L96.9395 18H96.0996ZM99.5127 16.2275L100.396 16.1738C100.396 16.4277 100.436 16.6442 100.514 16.8232C100.592 17.0023 100.735 17.1488 100.943 17.2627C101.155 17.3766 101.401 17.4336 101.681 17.4336C102.071 17.4336 102.364 17.3555 102.56 17.1992C102.755 17.043 102.853 16.859 102.853 16.6475C102.853 16.4945 102.794 16.3496 102.677 16.2129C102.556 16.0762 102.262 15.9085 101.793 15.71C101.327 15.5081 101.03 15.3665 100.899 15.2852C100.681 15.1517 100.517 14.9954 100.406 14.8164C100.296 14.6341 100.24 14.4258 100.24 14.1914C100.24 13.7812 100.403 13.4297 100.729 13.1367C101.054 12.8438 101.51 12.6973 102.096 12.6973C102.747 12.6973 103.242 12.8486 103.58 13.1514C103.922 13.4508 104.099 13.8464 104.112 14.3379L103.248 14.3965C103.235 14.084 103.124 13.8366 102.916 13.6543C102.708 13.472 102.413 13.3809 102.032 13.3809C101.726 13.3809 101.489 13.4508 101.319 13.5908C101.15 13.7308 101.065 13.8822 101.065 14.0449C101.065 14.2077 101.139 14.3509 101.285 14.4746C101.383 14.5592 101.635 14.6895 102.042 14.8652C102.719 15.1582 103.146 15.3893 103.321 15.5586C103.601 15.8288 103.741 16.1576 103.741 16.5449C103.741 16.8021 103.661 17.0544 103.502 17.3018C103.346 17.5492 103.105 17.7477 102.779 17.8975C102.457 18.0439 102.076 18.1172 101.637 18.1172C101.038 18.1172 100.528 17.9691 100.108 17.6729C99.6885 17.3766 99.4899 16.8949 99.5127 16.2275ZM107.926 17.3555C107.62 17.6191 107.325 17.8128 107.042 17.9365C106.759 18.057 106.456 18.1172 106.134 18.1172C105.655 18.1172 105.27 17.9772 104.977 17.6973C104.684 17.4141 104.537 17.0527 104.537 16.6133C104.537 16.3236 104.602 16.068 104.732 15.8467C104.866 15.6221 105.042 15.443 105.26 15.3096C105.478 15.1729 105.745 15.0752 106.061 15.0166C106.259 14.9775 106.635 14.9466 107.188 14.9238C107.745 14.901 108.144 14.8424 108.385 14.748C108.453 14.5072 108.487 14.307 108.487 14.1475C108.487 13.9424 108.412 13.7812 108.263 13.6641C108.058 13.5013 107.758 13.4199 107.364 13.4199C106.993 13.4199 106.689 13.5029 106.451 13.6689C106.217 13.8317 106.046 14.0645 105.938 14.3672L105.045 14.2891C105.227 13.7747 105.515 13.3809 105.909 13.1074C106.306 12.834 106.806 12.6973 107.408 12.6973C108.049 12.6973 108.557 12.8503 108.932 13.1562C109.218 13.3841 109.361 13.6803 109.361 14.0449C109.361 14.3216 109.321 14.6423 109.239 15.0068L108.951 16.2959C108.86 16.7061 108.814 17.0397 108.814 17.2969C108.814 17.4596 108.85 17.694 108.922 18H108.028C107.979 17.8307 107.945 17.6159 107.926 17.3555ZM108.253 15.373C108.129 15.4219 107.996 15.4593 107.853 15.4854C107.713 15.5114 107.477 15.5391 107.145 15.5684C106.63 15.6139 106.267 15.6725 106.056 15.7441C105.844 15.8125 105.685 15.9232 105.577 16.0762C105.47 16.2292 105.416 16.3984 105.416 16.584C105.416 16.8314 105.501 17.0348 105.67 17.1943C105.842 17.3538 106.087 17.4336 106.402 17.4336C106.695 17.4336 106.977 17.3571 107.247 17.2041C107.517 17.0479 107.73 16.8314 107.887 16.5547C108.043 16.278 108.165 15.8841 108.253 15.373ZM112.062 17.2822L111.915 18.0049C111.703 18.0602 111.498 18.0879 111.3 18.0879C110.948 18.0879 110.668 18.0016 110.46 17.8291C110.304 17.6989 110.226 17.5215 110.226 17.2969C110.226 17.1829 110.268 16.9209 110.353 16.5107L110.982 13.498H110.284L110.426 12.8145H111.124L111.393 11.54L112.403 10.9297L112.008 12.8145H112.877L112.73 13.498H111.866L111.266 16.3643C111.191 16.7288 111.153 16.9469 111.153 17.0186C111.153 17.1227 111.183 17.2025 111.241 17.2578C111.303 17.3132 111.402 17.3408 111.539 17.3408C111.734 17.3408 111.909 17.3213 112.062 17.2822ZM114.034 11.8428L114.244 10.8418H115.123L114.913 11.8428H114.034ZM112.745 18L113.829 12.8145H114.713L113.629 18H112.745ZM115.162 16.0322C115.162 15.0199 115.46 14.1816 116.056 13.5176C116.547 12.9707 117.192 12.6973 117.989 12.6973C118.614 12.6973 119.117 12.8926 119.498 13.2832C119.882 13.6738 120.074 14.2012 120.074 14.8652C120.074 15.4609 119.954 16.016 119.713 16.5303C119.472 17.0413 119.129 17.4336 118.683 17.707C118.24 17.9805 117.773 18.1172 117.281 18.1172C116.878 18.1172 116.51 18.0309 116.178 17.8584C115.849 17.6859 115.597 17.4417 115.421 17.126C115.248 16.8102 115.162 16.4456 115.162 16.0322ZM116.046 15.9443C116.046 16.4326 116.163 16.8037 116.397 17.0576C116.632 17.3083 116.93 17.4336 117.291 17.4336C117.48 17.4336 117.667 17.3962 117.853 17.3213C118.038 17.2432 118.211 17.126 118.37 16.9697C118.53 16.8135 118.665 16.6361 118.775 16.4375C118.889 16.2357 118.98 16.0192 119.049 15.7881C119.15 15.4658 119.2 15.1566 119.2 14.8604C119.2 14.3916 119.081 14.0286 118.844 13.7715C118.609 13.5111 118.313 13.3809 117.955 13.3809C117.678 13.3809 117.426 13.4476 117.198 13.5811C116.97 13.7113 116.764 13.9033 116.578 14.1572C116.396 14.4111 116.261 14.7074 116.173 15.0459C116.088 15.3812 116.046 15.6807 116.046 15.9443ZM120.572 18L121.656 12.8145H122.457L122.267 13.7178C122.615 13.363 122.94 13.1042 123.243 12.9414C123.546 12.7786 123.855 12.6973 124.171 12.6973C124.591 12.6973 124.92 12.8112 125.157 13.0391C125.398 13.2669 125.519 13.5713 125.519 13.9521C125.519 14.1442 125.476 14.4469 125.392 14.8604L124.732 18H123.849L124.537 14.7139C124.605 14.3949 124.64 14.1589 124.64 14.0059C124.64 13.8333 124.579 13.6934 124.459 13.5859C124.342 13.4785 124.171 13.4248 123.946 13.4248C123.494 13.4248 123.09 13.5876 122.735 13.9131C122.384 14.2386 122.125 14.7969 121.959 15.5879L121.456 18H120.572Z" fill="#34ACA7"/>
<g clip-path="url(#clip0)">
<path d="M23 10.039C22.405 10.3 21.771 10.473 21.11 10.557C21.79 10.151 22.309 9.513 22.553 8.744C21.919 9.122 21.219 9.389 20.473 9.538C19.871 8.897 19.013 8.5 18.077 8.5C16.261 8.5 14.799 9.974 14.799 11.781C14.799 12.041 14.821 12.291 14.875 12.529C12.148 12.396 9.735 11.089 8.114 9.098C7.831 9.589 7.665 10.151 7.665 10.756C7.665 11.892 8.25 12.899 9.122 13.482C8.595 13.472 8.078 13.319 7.64 13.078C7.64 13.088 7.64 13.101 7.64 13.114C7.64 14.708 8.777 16.032 10.268 16.337C10.001 16.41 9.71 16.445 9.408 16.445C9.198 16.445 8.986 16.433 8.787 16.389C9.212 17.688 10.418 18.643 11.852 18.674C10.736 19.547 9.319 20.073 7.785 20.073C7.516 20.073 7.258 20.061 7 20.028C8.453 20.965 10.175 21.5 12.032 21.5C18.068 21.5 21.368 16.5 21.368 12.166C21.368 12.021 21.363 11.881 21.356 11.742C22.007 11.28 22.554 10.703 23 10.039Z" fill="#34ACA7"/>
</g>
<path d="M5 1H135V-1H5V1ZM139 5V25H141V5H139ZM135 29H5V31H135V29ZM1 25V5H-1V25H1ZM5 29C2.79086 29 1 27.2091 1 25H-1C-1 28.3137 1.68629 31 5 31V29ZM139 25C139 27.2091 137.209 29 135 29V31C138.314 31 141 28.3137 141 25H139ZM135 1C137.209 1 139 2.79086 139 5H141C141 1.68629 138.314 -1 135 -1V1ZM5 -1C1.68629 -1 -1 1.68629 -1 5H1C1 2.79086 2.79086 1 5 1V-1Z" fill="#E5E5E5"/>
<defs>
<clipPath id="clip0">
<rect width="16" height="16" fill="white" transform="translate(7 7)"/>
</clipPath>
</defs>
</svg>
